#!OML:ASF I:\Actors\actors\Patient Classification 1\Patient 1\Session 1\Subject1.ASF
:FULLY-SPECIFIED
:DEGREES
876
root 0.422701 17.7193 7.00167 15.0748 -8.06564 -6.83657
lowerback 12.19 -2.19443 3.36106
upperback 6.50509 -2.51617 5.48565
thorax 0.109556 -1.29241 4.136
lowerneck -10.7038 1.59652 7.45079
upperneck 18.0987 -0.34676 5.49008
head 7.38902 0.796928 0.52728
rclavicle 3.97569e-015 -5.68524e-014
rhumerus 56.0618 54.8359 6.98144
rradius 84.1621
rwrist -52.1153
rhand 18.3087 -32.2532
rfingers 7.12502
rthumb 42.9563 -56.5145
lclavicle 3.97569e-015 -5.68524e-014
lhumerus 48.8847 -61.1935 22.5715
lradius 51.8535
lwrist 50.8253
lhand -5.56591 -11.6746
lfingers 7.12502
lthumb 20.2496 17.2899
rfemur -22.5549 20.3804 15.9043
rtibia 11.545
rfoot -8.39037 -16.4171
rtoes -4.62796
lfemur -15.1863 -22.6772 -5.18434
ltibia 4.22198
lfoot -8.41566 39.8285
ltoes 0.554989
877
root 0.409473 17.7203 7.02407 15.1231 -8.06065 -7.3141
lowerback 12.0682 -2.08095 3.56214
upperback 6.54418 -2.36028 5.09093
thorax 0.181256 -1.2006 3.58104
lowerneck -9.96484 1.39659 7.37205
upperneck 17.5133 -0.524371 5.72476
head 7.06513 0.68966 0.589278
rclavicle -4.12478e-014 6.24184e-014
rhumerus 53.6569 55.8234 5.112
rradius 83.4556
rwrist -51.5686
rhand 18.861 -32.7472
rfingers 7.12502
rthumb 43.4725 -56.8241
lclavicle -4.12478e-014 6.24184e-014
lhumerus 43.2859 -61.9841 28.5246
lradius 53.2889
lwrist 53.3762
lhand -3.33567 -9.04563
lfingers 7.12502
lthumb 22.3918 19.6766
rfemur -22.3467 20.3658 16.576
rtibia 11.4007
rfoot -8.32913 -16.2298
rtoes -4.68486
lfemur -14.9582 -22.754 -4.62721
ltibia 4.0587
lfoot -8.47772 40.0441
ltoes 0.571917
878
root 0.397602 17.7196 7.04981 15.082 -8.09932 -7.69377
lowerback 11.8334 -1.89975 3.77163
upperback 6.64287 -2.12704 4.62007
thorax 0.374776 -1.06742 2.92977
lowerneck -9.36801 1.14078 7.01379
upperneck 17.0937 -0.829625 6.35594
head 6.82493 0.544149 0.816918
rclavicle 1.02871e-014 -2.3556e-014
rhumerus 51.4676 56.832 3.61345
rradius 82.8118
rwrist -50.9978
rhand 19.3199 -32.9106
rfingers 7.12502
rthumb 43.901 -56.8303
lclavicle 1.02871e-014 -2.3556e-014
lhumerus 39.6601 -63.0858 32.0637
lradius 54.3833
lwrist 54.9054
lhand -5.23101 -9.77774
lfingers 7.12502
lthumb 20.5714 19.1523
rfemur -22.0118 20.3556 17.1527
rtibia 11.1805
rfoot -8.28565 -16.0169
rtoes -4.37225
lfemur -14.6179 -22.9595 -4.25267
ltibia 3.90872
lfoot -8.58606 40.3671
ltoes 0.544275
879
root 0.385421 17.718 7.07551 15.0114 -8.14122 -8.06828
lowerback 11.5083 -1.59893 4.10702
upperback 6.7328 -1.73006 4.0901
thorax 0.607417 -0.846272 2.13016
lowerneck -8.65029 0.80056 6.62903
upperneck 16.7092 -1.26878 7.18193
head 6.58186 0.344242 1.10079
rclavicle 7.29912e-016 -3.56818e-014
rhumerus 49.1262 58.0042 2.11837
rradius 82.2549
rwrist -50.5723
rhand 19.3922 -32.8542
rfingers 7.12502
rthumb 43.9685 -56.7488
lclavicle 7.29912e-016 -3.56818e-014
lhumerus 36.309 -63.2146 35.8096
lradius 55.4912
lwrist 58.3592
lhand -3.18205 -6.2447
lfingers 7.12502
lthumb 22.5392 22.4597
rfemur -21.6261 20.4126 17.7308
rtibia 10.9351
rfoot -8.26688 -15.8817
rtoes -3.892
lfemur -14.2797 -23.2066 -3.89132
ltibia 3.81685
lfoot -8.71337 40.7259
ltoes 0.395351
880
root 0.366767 17.7121 7.09928 15.0759 -8.29248 -8.47533
lowerback 10.9194 -1.10673 4.46869
upperback 6.78851 -1.09646 3.54606
thorax 0.962243 -0.503068 1.27912
lowerneck -7.89656 0.376364 6.31567
upperneck 16.3559 -1.81582 7.93914
head 6.34903 0.0881505 1.34459
rclavicle 3.57315e-014 -2.88238e-014
rhumerus 45.8938 59.2485 -0.339822
rradius 81.6867
rwrist -50.1908
rhand 19.2832 -32.8604
rfingers 7.12502
rthumb 43.8667 -56.7928
lclavicle 3.57315e-014 -2.88238e-014
lhumerus 35.4332 -63.9084 36.9188
lradius 56.3852
lwrist 61.3712
lhand -3.42546 -5.25008
lfingers 7.12502
lthumb 22.3056 23.4825
rfemur -21.4453 20.6916 18.2889
rtibia 10.7717
rfoot -8.24856 -15.9124
rtoes -3.4709
lfemur -14.0649 -23.2137 -3.41498
ltibia 3.72481
lfoot -8.94699 41.0196
ltoes 0.586288
881
root 0.348475 17.7076 7.12307 15.0592 -8.48135 -8.82841
lowerback 10.3529 -0.584121 4.83147
upperback 6.85571 -0.422622 3.02566
thorax 1.3422 -0.137835 0.463613
lowerneck -7.12191 -0.042434 6.01963
upperneck 15.9384 -2.29719 8.40822
head 6.09234 -0.164098 1.50121
rclavicle -2.88238e-014 -2.04748e-014
rhumerus 42.7219 60.3946 -2.85547
rradius 81.1257
rwrist -50.0966
rhand 19.0434 -32.9285
rfingers 7.12502
rthumb 43.643 -56.9433
lclavicle -2.88238e-014 -2.04748e-014
lhumerus 35.3398 -64.7122 37.1109
lradius 57.2142
lwrist 64.486
lhand -4.87908 -6.34238
lfingers 7.12502
lthumb 20.9096 22.5507
rfemur -21.2135 20.8745 18.8411
rtibia 10.6857
rfoot -8.18749 -15.8421
rtoes -3.46737
lfemur -13.793 -22.9204 -3.08215
ltibia 3.73874
lfoot -9.17092 41.0329
ltoes 0.651673
882
root 0.339204 17.7109 7.14677 14.5046 -8.57665 -8.74043
lowerback 10.3059 -0.197414 4.92887
upperback 7.01128 0.0842636 2.47139
thorax 1.54622 0.135775 -0.210522
lowerneck -6.42038 -0.411538 5.47177
upperneck 15.6228 -2.6832 8.79263
head 5.8823 -0.38629 1.68275
rclavicle -1.51076e-014 1.03368e-014
rhumerus 40.5056 61.4218 -4.66077
rradius 80.4356
rwrist -50.2032
rhand 19.0198 -33.1498
rfingers 7.12502
rthumb 43.6209 -57.1726
lclavicle -1.51076e-014 1.03368e-014
lhumerus 34.5925 -64.6716 38.2334
lradius 57.789
lwrist 65.2677
lhand -3.89174 -4.03017
lfingers 7.12502
lthumb 21.8579 24.7553
rfemur -20.4134 20.7083 19.089
rtibia 10.5692
rfoot -8.17879 -15.6203
rtoes -3.82133
lfemur -13.1348 -22.6786 -3.568
ltibia 3.99309
lfoot -9.31046 40.716
ltoes 0.321859
883
root 0.328415 17.7134 7.16977 13.979 -8.65386 -8.60322
lowerback 10.2064 0.154908 4.90999
upperback 7.1107 0.537403 2.0025
thorax 1.72705 0.376785 -0.723641
lowerneck -5.81934 -0.728283 4.61734
upperneck 15.62 -3.03991 9.36153
head 5.79704 -0.582333 1.97952
rclavicle 4.27387e-014 1.51076e-014
rhumerus 39.2518 62.4525 -5.68647
rradius 79.6755
rwrist -50.3453
rhand 19.0025 -33.261
rfingers 7.12502
rthumb 43.6048 -57.2898
lclavicle 4.27387e-014 1.51076e-014
lhumerus 34.5419 -64.817 38.4645
lradius 58.2925
lwrist 66.9821
lhand -4.14255 -3.46552
lfingers 7.12502
lthumb 21.6171 25.3478
rfemur -19.7224 20.5154 19.2548
rtibia 10.5656
rfoot -8.27099 -15.4006
rtoes -4.29538
lfemur -12.5996 -22.3474 -4.07355
ltibia 4.36957
lfoot -9.43133 40.2798
ltoes -0.106788
884
root 0.313679 17.7162 7.19416 13.9008 -8.70282 -9.08336
lowerback 9.71205 0.549606 5.41737
upperback 7.08499 1.06442 1.7493
thorax 2.01583 0.669551 -1.30488
lowerneck -5.09772 -1.04904 3.83435
upperneck 15.5324 -3.37931 9.78776
head 5.66501 -0.784704 2.2228
rclavicle -5.1684e-015 -1.47101e-014
rhumerus 38.2926 63.4535 -6.44022
rradius 79.0345
rwrist -50.5023
rhand 18.7272 -33.2044
rfingers 7.12502
rthumb 43.3475 -57.3264
lclavicle -5.1684e-015 -1.47101e-014
lhumerus 34.7784 -65.0279 38.3338
lradius 58.6844
lwrist 68.7957
lhand -4.6173 -4.16694
lfingers 7.12502
lthumb 21.1611 24.6982
rfemur -19.494 20.3833 20.0197
rtibia 10.7189
rfoot -8.37378 -15.0945
rtoes -4.7457
lfemur -12.4548 -21.7106 -3.61372
ltibia 4.69132
lfoot -9.37892 39.8124
ltoes -0.983916
885
root 0.297722 17.7196 7.21496 13.8088 -8.69053 -9.56889
lowerback 9.26474 0.996786 6.00365
upperback 7.03652 1.66717 1.49739
thorax 2.28059 1.00364 -1.92595
lowerneck -4.3243 -1.46633 3.22141
upperneck 15.2478 -3.8258 10.0434
head 5.466 -1.05212 2.37909
rclavicle -5.1684e-015 -3.37934e-014
rhumerus 36.4315 64.3383 -8.17278
rradius 78.4706
rwrist -50.516
rhand 18.601 -33.3193
rfingers 7.12502
rthumb 43.2296 -57.4836
lclavicle -5.1684e-015 -3.37934e-014
lhumerus 35.7368 -65.2152 37.5342
lradius 58.9897
lwrist 70.1087
lhand -4.59002 -4.50852
lfingers 7.12502
lthumb 21.1873 24.3537
rfemur -19.2768 20.2221 20.7962
rtibia 10.9133
rfoot -8.48468 -14.8033
rtoes -5.09882
lfemur -12.303 -21.1095 -3.10949
ltibia 4.9371
lfoot -9.19287 39.3541
ltoes -2.02811
886
root 0.280828 17.7215 7.22298 13.578 -8.70361 -9.72885
lowerback 9.12181 1.46175 6.28617
upperback 6.92792 2.29803 1.17012
thorax 2.32411 1.3365 -2.4603
lowerneck -3.62065 -1.8597 2.57544
upperneck 15.0654 -4.27825 10.4092
head 5.31928 -1.31117 2.57888
rclavicle 1.17283e-014 3.06128e-014
rhumerus 33.6526 65.1223 -11.045
rradius 77.8766
rwrist -50.2475
rhand 18.6082 -33.411
rfingers 7.12502
rthumb 43.2364 -57.5729
lclavicle 1.17283e-014 3.06128e-014
lhumerus 37.4245 -65.3615 35.9682
lradius 59.2399
lwrist 71.3817
lhand -4.45182 -4.23741
lfingers 7.12502
lthumb 21.32 24.6098
rfemur -19.1057 20.1803 21.1543
rtibia 11.2243
rfoot -8.64286 -14.6881
rtoes -5.27829
lfemur -12.1489 -20.6242 -2.96053
ltibia 5.21671
lfoot -9.09106 38.9611
ltoes -2.62444
